<?xml version="1.0" encoding="utf-8"?>
<!-- Generator: Adobe Illustrator 24.1.2, SVG Export Plug-In . SVG Version: 6.00 Build 0)  -->
<svg version="1.1" id="Livello_1" xmlns="http://www.w3.org/2000/svg" xmlns:xlink="http://www.w3.org/1999/xlink" x="0px" y="0px"
	 viewBox="0 0 56.69 56.69" style="enable-background:new 0 0 56.69 56.69;" xml:space="preserve">
<style type="text/css">
	.st0{fill:#050606;}
</style>
<g>
	<path d="M51.04,16.43c2.09,0,3.79-1.7,3.79-3.79c0-1.96-1.5-3.58-3.42-3.77c-0.13-1.97-1.78-3.53-3.78-3.53
		c-2.09,0-3.79,1.7-3.79,3.79c0,0.65,0.17,1.29,0.49,1.85l-3.32,3.32c-2.84-4.1-7.65-6.62-12.86-6.62c-5.13,0-9.9,2.46-12.75,6.47
		l-3.16-3.16c0.32-0.56,0.49-1.2,0.49-1.85c0-2.09-1.7-3.79-3.79-3.79c-2.01,0-3.65,1.56-3.79,3.53c-1.91,0.19-3.42,1.81-3.42,3.77
		c0,2.09,1.7,3.79,3.79,3.79c0.93,0,1.81-0.34,2.49-0.93l4.6,4.6H7.55c-1.29,0-2.35,1.05-2.35,2.35c0,1.29,1.05,2.35,2.35,2.35h5.42
		c0.68,3.78,2.87,7.11,6.15,9.37l-6.41,6.55c-0.67-0.59-1.52-0.92-2.44-0.92c-2.06,0-3.73,1.7-3.73,3.79c0,1.96,1.47,3.57,3.34,3.77
		c0.13,1.97,1.75,3.54,3.72,3.54c2.06,0,3.73-1.7,3.73-3.79c0-0.66-0.17-1.29-0.48-1.86l1.4-1.43c1.54,4.18,5.47,7.08,9.89,7.08
		c4.41,0,8.33-2.89,9.88-7.06l1.38,1.41c-0.31,0.56-0.48,1.2-0.48,1.86c0,2.09,1.67,3.79,3.73,3.79c1.97,0,3.59-1.56,3.73-3.54
		c1.87-0.2,3.34-1.82,3.34-3.77c0-2.09-1.67-3.79-3.73-3.79c-0.91,0-1.77,0.33-2.44,0.92l-6.4-6.54c3.29-2.25,5.48-5.59,6.17-9.38
		h5.41c1.29,0,2.35-1.05,2.35-2.35c0-1.29-1.05-2.35-2.35-2.35h-4.79l4.6-4.6C49.23,16.09,50.1,16.43,51.04,16.43z M28.15,9.47
		c4.89,0,9.4,2.49,11.82,6.49H16.31C18.74,11.95,23.27,9.47,28.15,9.47z M7.96,13.28c-0.03,0-0.07,0-0.1,0.01
		c-0.27,0.03-0.51,0.18-0.66,0.41c-0.37,0.58-1,0.93-1.69,0.93c-1.1,0-2-0.9-2-2c0-1.24,1.17-2.21,2.41-1.95
		c0.3,0.06,0.62-0.03,0.83-0.25c0.21-0.22,0.3-0.54,0.23-0.84C6.95,9.42,6.93,9.27,6.93,9.12c0-1.1,0.9-2,2-2s2,0.9,2,2
		c0,0.5-0.19,0.97-0.53,1.34c-0.32,0.35-0.31,0.9,0.03,1.24l3.98,3.98c-0.45,0.83-0.81,1.7-1.08,2.59L8.6,13.54
		C8.43,13.37,8.2,13.28,7.96,13.28z M36.91,39.34c-1.01,0.85-2.1,1.54-3.23,2.07c-0.05-0.48-0.11-0.95-0.17-1.41
		c1.17-0.36,2.27-0.86,3.33-1.5C36.87,38.78,36.89,39.06,36.91,39.34z M19.48,38.45c0.99,0.62,2.03,1.11,3.12,1.47
		c-0.06,0.44-0.12,0.9-0.17,1.36c-1.06-0.53-2.07-1.22-3.03-2.05C19.41,38.96,19.44,38.7,19.48,38.45z M24.35,40.38
		c0.92,0.19,1.9,0.29,2.93,0.33l0.01,1.88c-1.08-0.07-2.13-0.28-3.13-0.61C24.22,41.44,24.28,40.9,24.35,40.38z M29.09,42.59
		l-0.01-1.88c0.93-0.04,1.82-0.13,2.67-0.29c0.07,0.54,0.14,1.1,0.2,1.66C31.01,42.36,30.06,42.53,29.09,42.59z M35.63,35.11
		c0.01,0.02,0.03,0.05,0.04,0.07c0,0,0,0,0,0c0.28,0.47,0.49,0.97,0.68,1.49c-0.99,0.65-2.02,1.16-3.11,1.52
		c-0.12-0.81-0.24-1.5-0.32-1.99C33.85,35.91,34.77,35.57,35.63,35.11z M31.17,36.64c0.09,0.51,0.2,1.2,0.32,2.01
		c-0.77,0.15-1.57,0.23-2.43,0.27l-0.01-2.02C29.77,36.86,30.47,36.77,31.17,36.64z M27.25,36.9l0.01,2.02
		c-0.95-0.04-1.84-0.14-2.67-0.31c0.12-0.81,0.24-1.5,0.32-2C25.69,36.76,26.47,36.85,27.25,36.9z M22.86,38.11
		c-1.01-0.37-1.97-0.86-2.9-1.5c0.18-0.48,0.39-0.96,0.65-1.4c0.02-0.03,0.04-0.06,0.05-0.09c0.8,0.42,1.65,0.75,2.52,1.03
		C23.1,36.62,22.98,37.31,22.86,38.11z M15.06,44.51c-0.33,0.34-0.34,0.87-0.03,1.23c0.33,0.37,0.52,0.85,0.52,1.35
		c0,1.1-0.87,2-1.93,2s-1.93-0.9-1.93-2c0-0.15,0.02-0.31,0.06-0.48c0.07-0.3-0.02-0.62-0.23-0.84c-0.17-0.17-0.4-0.27-0.64-0.27
		c-0.06,0-0.13,0.01-0.19,0.02c-1.17,0.26-2.33-0.72-2.33-1.96c0-1.1,0.87-2,1.93-2c0.66,0,1.27,0.35,1.63,0.92
		c0.15,0.23,0.39,0.39,0.67,0.42c0.28,0.03,0.55-0.07,0.74-0.26l4.38-4.47c-0.09,0.57-0.13,1.16-0.13,1.74
		c0,0.62,0.05,1.25,0.16,1.87L15.06,44.51z M28.15,49.09c-4.1,0-7.71-3.02-8.59-7.18c-0.02-0.1-0.03-0.2-0.05-0.31
		c2.61,1.87,5.52,2.83,8.69,2.83c3.06,0,5.99-0.95,8.57-2.73c-0.01,0.07-0.02,0.15-0.04,0.22c0,0,0,0,0,0h0
		C35.84,46.08,32.23,49.09,28.15,49.09z M38.61,38.22l4.34,4.44c0.19,0.2,0.47,0.29,0.74,0.26c0.27-0.03,0.52-0.19,0.67-0.42
		c0.36-0.58,0.97-0.92,1.63-0.92c1.07,0,1.93,0.9,1.93,2c0,1.24-1.15,2.21-2.33,1.96c-0.3-0.07-0.62,0.03-0.83,0.25
		c-0.22,0.22-0.3,0.54-0.23,0.84c0.04,0.16,0.06,0.32,0.06,0.47c0,1.1-0.87,2-1.94,2c-1.07,0-1.93-0.9-1.93-2
		c0-0.5,0.18-0.98,0.52-1.35c0.32-0.35,0.3-0.89-0.03-1.23l-2.63-2.68c0.11-0.63,0.16-1.27,0.16-1.9
		C38.74,39.35,38.7,38.78,38.61,38.22z M35.46,33.14C35.46,33.14,35.46,33.14,35.46,33.14c-4.38,2.63-10.26,2.63-14.63,0
		c-3.18-1.91-5.33-4.92-6.04-8.36H41.5C40.79,28.22,38.64,31.23,35.46,33.14z M49.29,22.44c0,0.3-0.25,0.55-0.55,0.55H7.55
		c-0.3,0-0.55-0.25-0.55-0.55c0-0.3,0.25-0.55,0.55-0.55h41.19C49.04,21.89,49.29,22.13,49.29,22.44z M14.73,20.09
		c0.15-0.8,0.38-1.58,0.69-2.34h25.45c0.31,0.76,0.54,1.54,0.68,2.34H14.73z M43.03,18.47c-0.26-0.9-0.61-1.78-1.04-2.62l4.14-4.14
		c0.34-0.34,0.35-0.89,0.03-1.24c-0.34-0.37-0.53-0.85-0.53-1.34c0-1.1,0.9-2,2-2c1.1,0,2,0.9,2,2c0,0.15-0.02,0.31-0.06,0.47
		c-0.07,0.3,0.01,0.61,0.23,0.84c0.21,0.22,0.53,0.31,0.83,0.25c1.24-0.26,2.41,0.72,2.41,1.95c0,1.1-0.9,2-2,2
		c-0.69,0-1.32-0.35-1.69-0.93c-0.15-0.23-0.39-0.38-0.66-0.41c-0.28-0.03-0.54,0.06-0.73,0.26L43.03,18.47z"/>
	<path class="st0" d="M22.61,32.07c1.97,0,3.57-1.6,3.57-3.57c0-1.97-1.6-3.57-3.57-3.57c-1.97,0-3.57,1.6-3.57,3.57
		C19.04,30.47,20.64,32.07,22.61,32.07z"/>
	<path class="st0" d="M33.87,32.07c1.97,0,3.57-1.6,3.57-3.57c0-1.97-1.6-3.57-3.57-3.57c-1.97,0-3.57,1.6-3.57,3.57
		C30.3,30.47,31.9,32.07,33.87,32.07z"/>
	<path class="st0" d="M28.2,34.36c0.8,0,1.44-0.45,1.44-1c0-0.55-0.65-1-1.44-1c-0.8,0-1.44,0.45-1.44,1
		C26.75,33.92,27.4,34.36,28.2,34.36z"/>
</g>
</svg>
